<svg width="355" height="200" viewBox="0 0 355 200" fill="none" xmlns="http://www.w3.org/2000/svg">
<g filter="url(#filter0_d_60_216)">
<g filter="url(#filter1_d_60_216)">
<rect x="50" y="43" width="255" height="100" rx="10" fill="white"/>
</g>
<path d="M146.52 94.45C145.43 94.45 144.405 94.225 143.445 93.775C142.495 93.325 141.675 92.7 140.985 91.9C140.295 91.1 139.8 90.17 139.5 89.11L143.43 88.06C143.56 88.57 143.79 89.01 144.12 89.38C144.46 89.75 144.85 90.04 145.29 90.25C145.74 90.45 146.2 90.55 146.67 90.55C147.29 90.55 147.855 90.4 148.365 90.1C148.885 89.8 149.295 89.395 149.595 88.885C149.905 88.375 150.06 87.81 150.06 87.19C150.06 86.57 149.905 86.005 149.595 85.495C149.295 84.985 148.885 84.58 148.365 84.28C147.855 83.98 147.29 83.83 146.67 83.83C145.91 83.83 145.29 83.96 144.81 84.22C144.33 84.47 143.97 84.71 143.73 84.94L140.28 83.89L140.94 72.4H152.73V76.21H143.19L144.63 74.86L144.18 82.27L143.49 81.43C144.03 80.99 144.645 80.67 145.335 80.47C146.025 80.27 146.67 80.17 147.27 80.17C148.63 80.17 149.825 80.475 150.855 81.085C151.895 81.685 152.705 82.515 153.285 83.575C153.875 84.625 154.17 85.83 154.17 87.19C154.17 88.55 153.815 89.78 153.105 90.88C152.395 91.97 151.46 92.84 150.3 93.49C149.14 94.13 147.88 94.45 146.52 94.45ZM158.426 94V89.92H162.506V94H158.426ZM175.385 94.45C173.785 94.45 172.385 94.115 171.185 93.445C169.985 92.775 169.05 91.84 168.38 90.64C167.71 89.44 167.375 88.04 167.375 86.44V79.96C167.375 78.36 167.71 76.96 168.38 75.76C169.05 74.56 169.985 73.625 171.185 72.955C172.385 72.285 173.785 71.95 175.385 71.95C176.985 71.95 178.385 72.285 179.585 72.955C180.785 73.625 181.72 74.56 182.39 75.76C183.06 76.96 183.395 78.36 183.395 79.96V86.44C183.395 88.04 183.06 89.44 182.39 90.64C181.72 91.84 180.785 92.775 179.585 93.445C178.385 94.115 176.985 94.45 175.385 94.45ZM175.385 90.58C176.105 90.58 176.755 90.41 177.335 90.07C177.915 89.73 178.375 89.27 178.715 88.69C179.055 88.11 179.225 87.46 179.225 86.74V79.63C179.225 78.91 179.055 78.26 178.715 77.68C178.375 77.1 177.915 76.64 177.335 76.3C176.755 75.96 176.105 75.79 175.385 75.79C174.665 75.79 174.015 75.96 173.435 76.3C172.855 76.64 172.395 77.1 172.055 77.68C171.715 78.26 171.545 78.91 171.545 79.63V86.74C171.545 87.46 171.715 88.11 172.055 88.69C172.395 89.27 172.855 89.73 173.435 90.07C174.015 90.41 174.665 90.58 175.385 90.58ZM195.6 94.45C194 94.45 192.6 94.115 191.4 93.445C190.2 92.775 189.265 91.84 188.595 90.64C187.925 89.44 187.59 88.04 187.59 86.44V79.96C187.59 78.36 187.925 76.96 188.595 75.76C189.265 74.56 190.2 73.625 191.4 72.955C192.6 72.285 194 71.95 195.6 71.95C197.2 71.95 198.6 72.285 199.8 72.955C201 73.625 201.935 74.56 202.605 75.76C203.275 76.96 203.61 78.36 203.61 79.96V86.44C203.61 88.04 203.275 89.44 202.605 90.64C201.935 91.84 201 92.775 199.8 93.445C198.6 94.115 197.2 94.45 195.6 94.45ZM195.6 90.58C196.32 90.58 196.97 90.41 197.55 90.07C198.13 89.73 198.59 89.27 198.93 88.69C199.27 88.11 199.44 87.46 199.44 86.74V79.63C199.44 78.91 199.27 78.26 198.93 77.68C198.59 77.1 198.13 76.64 197.55 76.3C196.97 75.96 196.32 75.79 195.6 75.79C194.88 75.79 194.23 75.96 193.65 76.3C193.07 76.64 192.61 77.1 192.27 77.68C191.93 78.26 191.76 78.91 191.76 79.63V86.74C191.76 87.46 191.93 88.11 192.27 88.69C192.61 89.27 193.07 89.73 193.65 90.07C194.23 90.41 194.88 90.58 195.6 90.58Z" fill="#1C1C1C"/>
<path d="M141.992 120V110.056H138.16V108.48H147.496V110.056H143.664V120H141.992ZM147.979 120V111.36H149.467V113.456L149.259 113.184C149.366 112.907 149.505 112.653 149.675 112.424C149.846 112.189 150.043 111.997 150.267 111.848C150.486 111.688 150.729 111.565 150.995 111.48C151.267 111.389 151.545 111.336 151.827 111.32C152.11 111.299 152.382 111.312 152.643 111.36V112.928C152.361 112.853 152.046 112.832 151.699 112.864C151.358 112.896 151.043 113.005 150.755 113.192C150.483 113.368 150.267 113.581 150.107 113.832C149.953 114.083 149.841 114.363 149.771 114.672C149.702 114.976 149.667 115.299 149.667 115.64V120H147.979ZM157.423 120.232C156.826 120.232 156.324 120.136 155.919 119.944C155.514 119.752 155.183 119.501 154.927 119.192C154.676 118.877 154.484 118.536 154.351 118.168C154.218 117.8 154.127 117.44 154.079 117.088C154.031 116.736 154.007 116.427 154.007 116.16V111.36H155.703V115.608C155.703 115.944 155.73 116.291 155.783 116.648C155.842 117 155.948 117.328 156.103 117.632C156.263 117.936 156.484 118.181 156.767 118.368C157.055 118.555 157.428 118.648 157.887 118.648C158.186 118.648 158.468 118.6 158.735 118.504C159.002 118.403 159.234 118.243 159.431 118.024C159.634 117.805 159.791 117.517 159.903 117.16C160.02 116.803 160.079 116.368 160.079 115.856L161.119 116.248C161.119 117.032 160.972 117.725 160.679 118.328C160.386 118.925 159.964 119.392 159.415 119.728C158.866 120.064 158.202 120.232 157.423 120.232ZM160.279 120V117.504H160.079V111.36H161.767V120H160.279ZM167.315 120.232C166.264 120.232 165.408 120 164.747 119.536C164.085 119.072 163.68 118.419 163.531 117.576L165.243 117.312C165.349 117.76 165.595 118.115 165.979 118.376C166.368 118.632 166.851 118.76 167.427 118.76C167.949 118.76 168.357 118.653 168.651 118.44C168.949 118.227 169.099 117.933 169.099 117.56C169.099 117.341 169.045 117.165 168.939 117.032C168.837 116.893 168.621 116.763 168.291 116.64C167.96 116.517 167.456 116.365 166.779 116.184C166.037 115.992 165.448 115.787 165.011 115.568C164.579 115.344 164.269 115.085 164.083 114.792C163.901 114.493 163.811 114.133 163.811 113.712C163.811 113.189 163.949 112.733 164.227 112.344C164.504 111.955 164.893 111.653 165.395 111.44C165.901 111.227 166.493 111.12 167.171 111.12C167.832 111.12 168.421 111.224 168.939 111.432C169.456 111.64 169.875 111.936 170.195 112.32C170.515 112.699 170.707 113.144 170.771 113.656L169.059 113.968C169 113.552 168.805 113.224 168.475 112.984C168.144 112.744 167.715 112.613 167.187 112.592C166.68 112.571 166.269 112.656 165.955 112.848C165.64 113.035 165.483 113.293 165.483 113.624C165.483 113.816 165.541 113.979 165.659 114.112C165.781 114.245 166.016 114.373 166.363 114.496C166.709 114.619 167.221 114.765 167.899 114.936C168.624 115.123 169.2 115.331 169.627 115.56C170.053 115.784 170.357 116.053 170.539 116.368C170.725 116.677 170.819 117.053 170.819 117.496C170.819 118.349 170.507 119.019 169.883 119.504C169.264 119.989 168.408 120.232 167.315 120.232ZM177.533 120C176.989 120.107 176.455 120.152 175.933 120.136C175.41 120.12 174.943 120.019 174.533 119.832C174.122 119.645 173.813 119.352 173.605 118.952C173.418 118.595 173.317 118.232 173.301 117.864C173.29 117.491 173.285 117.069 173.285 116.6V108.96H174.965V116.52C174.965 116.867 174.967 117.168 174.973 117.424C174.983 117.68 175.039 117.896 175.141 118.072C175.333 118.403 175.637 118.592 176.053 118.64C176.474 118.683 176.967 118.664 177.533 118.584V120ZM171.629 112.704V111.36H177.533V112.704H171.629ZM182.558 120V108.48H187.214C187.326 108.48 187.464 108.485 187.63 108.496C187.795 108.501 187.952 108.517 188.102 108.544C188.742 108.645 189.275 108.864 189.701 109.2C190.134 109.536 190.456 109.96 190.67 110.472C190.883 110.984 190.99 111.549 190.99 112.168C190.99 112.792 190.883 113.36 190.67 113.872C190.456 114.384 190.134 114.808 189.701 115.144C189.275 115.48 188.742 115.699 188.102 115.8C187.952 115.821 187.792 115.837 187.622 115.848C187.456 115.859 187.32 115.864 187.214 115.864H184.23V120H182.558ZM184.23 114.28H187.15C187.256 114.28 187.374 114.275 187.502 114.264C187.635 114.253 187.76 114.235 187.878 114.208C188.219 114.128 188.494 113.981 188.702 113.768C188.91 113.549 189.059 113.299 189.15 113.016C189.24 112.733 189.286 112.451 189.286 112.168C189.286 111.885 189.24 111.605 189.15 111.328C189.059 111.045 188.91 110.797 188.702 110.584C188.494 110.365 188.219 110.216 187.878 110.136C187.76 110.104 187.635 110.083 187.502 110.072C187.374 110.061 187.256 110.056 187.15 110.056H184.23V114.28ZM192.749 109.944V108.32H194.421V109.944H192.749ZM192.749 120V111.36H194.421V120H192.749ZM196.983 120V108.24H198.655V120H196.983ZM204.81 120.24C203.946 120.24 203.196 120.045 202.562 119.656C201.927 119.267 201.436 118.731 201.09 118.048C200.748 117.36 200.578 116.568 200.578 115.672C200.578 114.771 200.754 113.979 201.106 113.296C201.458 112.608 201.951 112.075 202.586 111.696C203.22 111.312 203.962 111.12 204.81 111.12C205.674 111.12 206.423 111.315 207.058 111.704C207.692 112.093 208.183 112.629 208.53 113.312C208.876 113.995 209.05 114.781 209.05 115.672C209.05 116.573 208.874 117.368 208.522 118.056C208.175 118.739 207.684 119.275 207.05 119.664C206.415 120.048 205.668 120.24 204.81 120.24ZM204.81 118.664C205.636 118.664 206.252 118.387 206.658 117.832C207.068 117.272 207.274 116.552 207.274 115.672C207.274 114.771 207.066 114.051 206.65 113.512C206.239 112.968 205.626 112.696 204.81 112.696C204.25 112.696 203.788 112.824 203.426 113.08C203.063 113.331 202.794 113.68 202.618 114.128C202.442 114.571 202.354 115.085 202.354 115.672C202.354 116.579 202.562 117.304 202.978 117.848C203.394 118.392 204.004 118.664 204.81 118.664ZM215.752 120C215.208 120.107 214.674 120.152 214.152 120.136C213.629 120.12 213.162 120.019 212.752 119.832C212.341 119.645 212.032 119.352 211.824 118.952C211.637 118.595 211.536 118.232 211.52 117.864C211.509 117.491 211.504 117.069 211.504 116.6V108.96H213.184V116.52C213.184 116.867 213.186 117.168 213.192 117.424C213.202 117.68 213.258 117.896 213.36 118.072C213.552 118.403 213.856 118.592 214.272 118.64C214.693 118.683 215.186 118.664 215.752 118.584V120ZM209.848 112.704V111.36H215.752V112.704H209.848ZM220.776 120V108.48H225.432C225.544 108.48 225.683 108.485 225.848 108.496C226.014 108.501 226.171 108.517 226.32 108.544C226.96 108.645 227.494 108.864 227.92 109.2C228.352 109.536 228.675 109.96 228.888 110.472C229.102 110.984 229.208 111.549 229.208 112.168C229.208 113.085 228.974 113.877 228.504 114.544C228.035 115.205 227.331 115.619 226.392 115.784L225.712 115.864H222.448V120H220.776ZM227.512 120L225.24 115.312L226.928 114.88L229.424 120H227.512ZM222.448 114.28H225.368C225.475 114.28 225.592 114.275 225.72 114.264C225.854 114.253 225.979 114.235 226.096 114.208C226.438 114.128 226.712 113.981 226.92 113.768C227.128 113.549 227.278 113.299 227.368 113.016C227.459 112.733 227.504 112.451 227.504 112.168C227.504 111.885 227.459 111.605 227.368 111.328C227.278 111.045 227.128 110.797 226.92 110.584C226.712 110.365 226.438 110.216 226.096 110.136C225.979 110.104 225.854 110.083 225.72 110.072C225.592 110.061 225.475 110.056 225.368 110.056H222.448V114.28ZM233.623 120.24C232.983 120.24 232.447 120.123 232.015 119.888C231.583 119.648 231.255 119.333 231.031 118.944C230.812 118.549 230.703 118.117 230.703 117.648C230.703 117.211 230.78 116.827 230.935 116.496C231.089 116.165 231.319 115.885 231.623 115.656C231.927 115.421 232.3 115.232 232.743 115.088C233.127 114.976 233.561 114.877 234.047 114.792C234.532 114.707 235.041 114.627 235.575 114.552C236.113 114.477 236.647 114.403 237.175 114.328L236.567 114.664C236.577 113.987 236.433 113.485 236.135 113.16C235.841 112.829 235.335 112.664 234.615 112.664C234.161 112.664 233.745 112.771 233.367 112.984C232.988 113.192 232.724 113.539 232.575 114.024L231.015 113.544C231.228 112.803 231.633 112.213 232.231 111.776C232.833 111.339 233.633 111.12 234.631 111.12C235.404 111.12 236.076 111.253 236.647 111.52C237.223 111.781 237.644 112.197 237.911 112.768C238.049 113.051 238.135 113.349 238.167 113.664C238.199 113.979 238.215 114.317 238.215 114.68V120H236.735V118.024L237.023 118.28C236.665 118.941 236.209 119.435 235.655 119.76C235.105 120.08 234.428 120.24 233.623 120.24ZM233.919 118.872C234.393 118.872 234.801 118.789 235.143 118.624C235.484 118.453 235.759 118.237 235.967 117.976C236.175 117.715 236.311 117.443 236.375 117.16C236.465 116.904 236.516 116.616 236.527 116.296C236.543 115.976 236.551 115.72 236.551 115.528L237.095 115.728C236.567 115.808 236.087 115.88 235.655 115.944C235.223 116.008 234.831 116.072 234.479 116.136C234.132 116.195 233.823 116.267 233.551 116.352C233.321 116.432 233.116 116.528 232.935 116.64C232.759 116.752 232.617 116.888 232.511 117.048C232.409 117.208 232.359 117.403 232.359 117.632C232.359 117.856 232.415 118.064 232.527 118.256C232.639 118.443 232.809 118.592 233.039 118.704C233.268 118.816 233.561 118.872 233.919 118.872ZM245.236 120C244.692 120.107 244.159 120.152 243.636 120.136C243.113 120.12 242.647 120.019 242.236 119.832C241.825 119.645 241.516 119.352 241.308 118.952C241.121 118.595 241.02 118.232 241.004 117.864C240.993 117.491 240.988 117.069 240.988 116.6V108.96H242.668V116.52C242.668 116.867 242.671 117.168 242.676 117.424C242.687 117.68 242.743 117.896 242.844 118.072C243.036 118.403 243.34 118.592 243.756 118.64C244.177 118.683 244.671 118.664 245.236 118.584V120ZM239.332 112.704V111.36H245.236V112.704H239.332ZM247.218 109.944V108.32H248.89V109.944H247.218ZM247.218 120V111.36H248.89V120H247.218ZM257.356 120V115.752C257.356 115.416 257.327 115.072 257.268 114.72C257.215 114.363 257.108 114.032 256.948 113.728C256.793 113.424 256.572 113.179 256.284 112.992C256.001 112.805 255.631 112.712 255.172 112.712C254.873 112.712 254.591 112.763 254.324 112.864C254.057 112.96 253.823 113.117 253.62 113.336C253.423 113.555 253.265 113.843 253.148 114.2C253.036 114.557 252.98 114.992 252.98 115.504L251.94 115.112C251.94 114.328 252.087 113.637 252.38 113.04C252.673 112.437 253.095 111.968 253.644 111.632C254.193 111.296 254.857 111.128 255.636 111.128C256.233 111.128 256.735 111.224 257.14 111.416C257.545 111.608 257.873 111.861 258.124 112.176C258.38 112.485 258.575 112.824 258.708 113.192C258.841 113.56 258.932 113.92 258.98 114.272C259.028 114.624 259.052 114.933 259.052 115.2V120H257.356ZM251.284 120V111.36H252.78V113.856H252.98V120H251.284ZM264.696 124.08C264.232 124.08 263.781 124.008 263.344 123.864C262.912 123.72 262.517 123.507 262.16 123.224C261.802 122.947 261.506 122.603 261.272 122.192L262.816 121.408C263.002 121.776 263.269 122.045 263.616 122.216C263.962 122.387 264.328 122.472 264.712 122.472C265.186 122.472 265.592 122.387 265.928 122.216C266.264 122.051 266.517 121.8 266.688 121.464C266.864 121.128 266.949 120.712 266.944 120.216V117.8H267.144V111.36H268.624V120.232C268.624 120.461 268.616 120.68 268.6 120.888C268.584 121.096 268.554 121.304 268.512 121.512C268.389 122.093 268.154 122.573 267.808 122.952C267.466 123.331 267.029 123.613 266.496 123.8C265.968 123.987 265.368 124.08 264.696 124.08ZM264.568 120.24C263.762 120.24 263.066 120.04 262.48 119.64C261.898 119.24 261.448 118.696 261.128 118.008C260.813 117.315 260.656 116.536 260.656 115.672C260.656 114.803 260.816 114.027 261.136 113.344C261.456 112.656 261.909 112.115 262.496 111.72C263.088 111.32 263.789 111.12 264.6 111.12C265.416 111.12 266.101 111.32 266.656 111.72C267.216 112.115 267.637 112.656 267.92 113.344C268.208 114.032 268.352 114.808 268.352 115.672C268.352 116.536 268.208 117.312 267.92 118C267.632 118.688 267.208 119.235 266.648 119.64C266.088 120.04 265.394 120.24 264.568 120.24ZM264.8 118.728C265.349 118.728 265.797 118.597 266.144 118.336C266.49 118.075 266.744 117.715 266.904 117.256C267.064 116.797 267.144 116.269 267.144 115.672C267.144 115.075 267.061 114.547 266.896 114.088C266.736 113.629 266.485 113.272 266.144 113.016C265.808 112.76 265.378 112.632 264.856 112.632C264.301 112.632 263.845 112.768 263.488 113.04C263.13 113.312 262.864 113.677 262.688 114.136C262.517 114.595 262.432 115.107 262.432 115.672C262.432 116.243 262.517 116.76 262.688 117.224C262.864 117.683 263.125 118.048 263.472 118.32C263.824 118.592 264.266 118.728 264.8 118.728ZM274.174 120.232C273.123 120.232 272.267 120 271.606 119.536C270.945 119.072 270.539 118.419 270.39 117.576L272.102 117.312C272.209 117.76 272.454 118.115 272.838 118.376C273.227 118.632 273.71 118.76 274.286 118.76C274.809 118.76 275.217 118.653 275.51 118.44C275.809 118.227 275.958 117.933 275.958 117.56C275.958 117.341 275.905 117.165 275.798 117.032C275.697 116.893 275.481 116.763 275.15 116.64C274.819 116.517 274.315 116.365 273.638 116.184C272.897 115.992 272.307 115.787 271.87 115.568C271.438 115.344 271.129 115.085 270.942 114.792C270.761 114.493 270.67 114.133 270.67 113.712C270.67 113.189 270.809 112.733 271.086 112.344C271.363 111.955 271.753 111.653 272.254 111.44C272.761 111.227 273.353 111.12 274.03 111.12C274.691 111.12 275.281 111.224 275.798 111.432C276.315 111.64 276.734 111.936 277.054 112.32C277.374 112.699 277.566 113.144 277.63 113.656L275.918 113.968C275.859 113.552 275.665 113.224 275.334 112.984C275.003 112.744 274.574 112.613 274.046 112.592C273.539 112.571 273.129 112.656 272.814 112.848C272.499 113.035 272.342 113.293 272.342 113.624C272.342 113.816 272.401 113.979 272.518 114.112C272.641 114.245 272.875 114.373 273.222 114.496C273.569 114.619 274.081 114.765 274.758 114.936C275.483 115.123 276.059 115.331 276.486 115.56C276.913 115.784 277.217 116.053 277.398 116.368C277.585 116.677 277.678 117.053 277.678 117.496C277.678 118.349 277.366 119.019 276.742 119.504C276.123 119.989 275.267 120.232 274.174 120.232Z" fill="#777777"/>
<path d="M119.442 84.778L106.903 83.6152L101.923 72.0499C101.574 71.2401 100.426 71.2401 100.077 72.0499L95.0966 83.6151L82.5584 84.778C81.6804 84.8594 81.3257 85.9514 81.988 86.5333L91.4482 94.8439L88.6796 107.128C88.4858 107.988 89.4147 108.663 90.1728 108.213L101 101.784L111.827 108.213C112.585 108.663 113.514 107.988 113.32 107.128L110.552 94.8439L120.012 86.5333C120.674 85.9514 120.319 84.8594 119.442 84.778Z" fill="#FFDC64"/>
<path d="M88.1823 71.6517C88.8215 72.5395 90.6256 76.3523 91.6571 78.5744C91.8193 78.9237 91.381 79.2393 91.1011 78.9746C89.3211 77.2916 86.2775 74.3711 85.6383 73.4832C85.1325 72.7808 85.292 71.8012 85.9946 71.2955C86.697 70.7897 87.6765 70.9492 88.1823 71.6517Z" fill="#FFF082"/>
<path d="M113.818 71.6517C113.179 72.5395 111.374 76.3523 110.343 78.5744C110.181 78.9237 110.619 79.2393 110.899 78.9746C112.679 77.2916 115.722 74.371 116.362 73.4832C116.868 72.7808 116.708 71.8012 116.005 71.2955C115.303 70.7897 114.324 70.9492 113.818 71.6517Z" fill="#FFF082"/>
<path d="M123.918 97.6867C122.878 97.3475 118.697 96.7871 116.267 96.4796C115.885 96.4313 115.718 96.9447 116.055 97.1309C118.199 98.3155 121.906 100.328 122.946 100.667C123.769 100.935 124.654 100.486 124.922 99.6627C125.191 98.8397 124.741 97.9551 123.918 97.6867Z" fill="#FFF082"/>
<path d="M78.0818 97.6867C79.1218 97.3475 83.3026 96.7871 85.7329 96.4796C86.1149 96.4313 86.2824 96.9447 85.9453 97.1309C83.801 98.3155 80.0938 100.328 79.0538 100.667C78.2308 100.935 77.3461 100.486 77.0777 99.6627C76.8093 98.8397 77.2588 97.9551 78.0818 97.6867Z" fill="#FFF082"/>
<path d="M99.4807 115.376C99.4807 114.282 100.244 110.133 100.706 107.727C100.778 107.349 101.318 107.349 101.391 107.727C101.852 110.133 102.615 114.282 102.615 115.376C102.615 116.241 101.914 116.943 101.048 116.943C100.182 116.943 99.4807 116.241 99.4807 115.376Z" fill="#FFF082"/>
<path d="M103.734 76.2555L101.923 72.0499C101.574 71.2401 100.426 71.2401 100.077 72.0499L95.0965 83.6151L82.5584 84.778C81.6804 84.8594 81.3257 85.9514 81.988 86.5333L91.4482 94.8439L88.6796 107.128C88.4858 107.988 89.4147 108.663 90.1728 108.213L91.6138 107.357C93.9762 92.0646 100.618 80.8388 103.734 76.2555Z" fill="#FFC850"/>
</g>
<defs>
<filter id="filter0_d_60_216" x="46" y="43" width="263" height="108" filterUnits="userSpaceOnUse" color-interpolation-filters="sRGB">
<feFlood flood-opacity="0" result="BackgroundImageFix"/>
<feColorMatrix in="SourceAlpha" type="matrix" values="0 0 0 0 0 0 0 0 0 0 0 0 0 0 0 0 0 0 127 0" result="hardAlpha"/>
<feOffset dy="4"/>
<feGaussianBlur stdDeviation="2"/>
<feComposite in2="hardAlpha" operator="out"/>
<feColorMatrix type="matrix" values="0 0 0 0 0 0 0 0 0 0 0 0 0 0 0 0 0 0 0.25 0"/>
<feBlend mode="normal" in2="BackgroundImageFix" result="effect1_dropShadow_60_216"/>
<feBlend mode="normal" in="SourceGraphic" in2="effect1_dropShadow_60_216" result="shape"/>
</filter>
<filter id="filter1_d_60_216" x="0" y="0" width="355" height="200" filterUnits="userSpaceOnUse" color-interpolation-filters="sRGB">
<feFlood flood-opacity="0" result="BackgroundImageFix"/>
<feColorMatrix in="SourceAlpha" type="matrix" values="0 0 0 0 0 0 0 0 0 0 0 0 0 0 0 0 0 0 127 0" result="hardAlpha"/>
<feOffset dy="7"/>
<feGaussianBlur stdDeviation="25"/>
<feComposite in2="hardAlpha" operator="out"/>
<feColorMatrix type="matrix" values="0 0 0 0 0 0 0 0 0 0 0 0 0 0 0 0 0 0 0.06 0"/>
<feBlend mode="normal" in2="BackgroundImageFix" result="effect1_dropShadow_60_216"/>
<feBlend mode="normal" in="SourceGraphic" in2="effect1_dropShadow_60_216" result="shape"/>
</filter>
</defs>
</svg>
